<svg width="36" height="36" viewBox="0 0 36 36" fill="none" xmlns="http://www.w3.org/2000/svg">
<g clip-path="url(#clip0_1_3173)">
<path d="M15.2917 22.5832L18.0001 19.935L20.7084 22.5832L22.1667 21.1573L19.4584 18.5091L22.1667 15.861L20.7084 14.435L18.0001 17.0832L15.2917 14.435L13.8334 15.861L16.5417 18.5091L13.8334 21.1573L15.2917 22.5832ZM12.7917 27.1665C12.2188 27.1665 11.7286 26.9672 11.3209 26.5687C10.9126 26.1694 10.7084 25.6897 10.7084 25.1295V11.8887H9.66675V9.85171H14.8751V8.83319H21.1251V9.85171H26.3334V11.8887H25.2917V25.1295C25.2917 25.6897 25.0879 26.1694 24.6803 26.5687C24.272 26.9672 23.7813 27.1665 23.2084 27.1665H12.7917ZM23.2084 11.8887H12.7917V25.1295H23.2084V11.8887Z" fill="#E46D64"/>
</g>
<defs>
<clipPath id="clip0_1_3173">
<rect width="20" height="20" fill="white" transform="translate(8 7.99988)"/>
</clipPath>
</defs>
</svg>
